<svg width="18" height="18" viewBox="0 0 18 18" fill="#9EA0A6" xmlns="http://www.w3.org/2000/svg">
  <path fill-rule="evenodd" clip-rule="evenodd" d="M0 2.8125C0 1.2592 1.2592 0 2.8125 0H15.1875C16.7408 0 18 1.2592 18 2.8125V15.1875C18 16.7408 16.7408 18 15.1875 18H2.8125C1.2592 18 0 16.7408 0 15.1875V2.8125ZM4.6125 7.48125V13.5H6.525V7.48125H4.6125ZM4.5 5.56875C4.5 6.1875 4.95 6.6375 5.56875 6.6375C6.1875 6.6375 6.6375 6.1875 6.6375 5.56875C6.6375 4.95 6.1875 4.5 5.56875 4.5C5.00625 4.5 4.5 4.95 4.5 5.56875ZM11.5875 13.5H13.3875V9.7875C13.3875 7.93125 12.2625 7.3125 11.1937 7.3125C10.2375 7.3125 9.5625 7.93125 9.39375 8.325V7.48125H7.59375V13.5H9.50625V10.2938C9.50625 9.45 10.0687 9 10.6312 9C11.1937 9 11.5875 9.28125 11.5875 10.2375V13.5Z" />
</svg>
