<svg xmlns="http://www.w3.org/2000/svg" width="108" height="20" viewBox="0 0 108 20"><title>Logo</title><desc>Antonio Almena</desc><path d="M18.17041,8.97461h.97949v3.93555H9.55127V8.97461h1.46924l-.3916-1.91992H7.29883L6.90674,8.97461H8.376v3.93555H.002V8.97461h.9795L5.11963-5.76172h8.9126ZM7.8374,4.51025h2.25244L9.08594-.26562H8.84131Z" transform="translate(-0.00195 5.76172)"/><path d="M37.6123,8.97461v3.93555H29.875V8.97461h1.02832V5.03809A1.67822,1.67822,0,0,0,30.56055,3.874,1.33248,1.33248,0,0,0,29.53223,3.502q-1.46925,0-1.46875,1.53614V8.97461H29.0918v3.93555H21.354V8.97461h1.07715V3.502H21.354v-3.936h6.70948V1.438A5.4221,5.4221,0,0,1,32.4707-.77,3.6993,3.6993,0,0,1,35.51855.478a5.28492,5.28492,0,0,1,1.01661,3.43213V8.97461Z" transform="translate(-0.00195 5.76172)"/><path d="M41.02832,12.00977Q39.71875,10.7749,39.71875,7.8457V3.502H38.6416v-3.936a1.889,1.889,0,0,0,1.39551-.46778A1.7429,1.7429,0,0,0,40.502-2.186V-3.26562h5.19141V-.43408H48.999V3.502H45.69336V7.4375a1.6418,1.6418,0,0,0,.35449,1.165,1.40629,1.40629,0,0,0,1.06543.37207,10.58152,10.58152,0,0,0,2.03223-.2168v3.76856a11.52415,11.52415,0,0,1-1.84863.49218,12.30584,12.30584,0,0,1-2.36231.22754A5.4992,5.4992,0,0,1,41.02832,12.00977Z" transform="translate(-0.00195 5.76172)"/><path d="M51.78906,11.458a6.70823,6.70823,0,0,1-1.959-5.21973,6.71074,6.71074,0,0,1,1.959-5.22021A7.76539,7.76539,0,0,1,57.22461-.77a7.68718,7.68718,0,0,1,5.46094,1.812,6.77649,6.77649,0,0,1,1.93457,5.19629,6.71163,6.71163,0,0,1-1.959,5.21973,7.76569,7.76569,0,0,1-5.43652,1.78808A7.76313,7.76313,0,0,1,51.78906,11.458ZM58.29,8.60254a1.64185,1.64185,0,0,0,.35547-1.165V5.03809A1.6408,1.6408,0,0,0,58.29,3.874a1.71007,1.71007,0,0,0-2.12988,0,1.63624,1.63624,0,0,0-.35547,1.16407V7.4375a1.63729,1.63729,0,0,0,.35547,1.165,1.71007,1.71007,0,0,0,2.12988,0Z" transform="translate(-0.00195 5.76172)"/><path d="M81.66211,8.97461v3.93555H73.9248V8.97461h1.02832V5.03809A1.67817,1.67817,0,0,0,74.61035,3.874,1.33247,1.33247,0,0,0,73.582,3.502q-1.46923,0-1.46875,1.53614V8.97461H73.1416v3.93555H65.40332V8.97461h1.07813V3.502H65.40332v-3.936h6.71V1.438A5.42213,5.42213,0,0,1,76.52051-.77,3.69933,3.69933,0,0,1,79.56836.478,5.285,5.285,0,0,1,80.585,3.91016V8.97461Z" transform="translate(-0.00195 5.76172)"/><path d="M83.91406,12.91016V8.97461h1.07813V3.502H83.91406v-3.936h6.71V8.97461h1.07715v3.93555ZM85.08984-1.75391V-5.76172H90.085v4.00781Z" transform="translate(-0.00195 5.76172)"/><path d="M94.7373,11.458a6.70823,6.70823,0,0,1-1.959-5.21973,6.71074,6.71074,0,0,1,1.959-5.22021A7.76539,7.76539,0,0,1,100.17285-.77a7.68718,7.68718,0,0,1,5.46094,1.812,6.77649,6.77649,0,0,1,1.93457,5.19629,6.71166,6.71166,0,0,1-1.959,5.21973,9.15724,9.15724,0,0,1-10.87208,0Zm6.501-2.85547a1.64185,1.64185,0,0,0,.35547-1.165V5.03809a1.6408,1.6408,0,0,0-.35547-1.16407,1.71007,1.71007,0,0,0-2.12988,0,1.63624,1.63624,0,0,0-.35547,1.16407V7.4375a1.63729,1.63729,0,0,0,.35547,1.165,1.71007,1.71007,0,0,0,2.12988,0Z" transform="translate(-0.00195 5.76172)"/></svg>