<?xml version="1.0" encoding="UTF-8"?>
<svg xmlns="http://www.w3.org/2000/svg" width="204px" height="20px" viewBox="0 0 204 20">
  <title>Logo</title>
  <desc>Antonio Almena</desc>
  <path d="M28.59619,13.97949h.93067V17.915H20.4082V13.97949h1.39551l-.37207-1.9209H18.26807l-.37256,1.9209h1.396V17.915H11.33594V13.97949h.93017L16.19775-.75684H24.665Zm-9.8164-4.46435h2.14013l-.9541-4.77588H19.7334Z" transform="translate(-11.33594 0.75684)"/>
  <path d="M46.60107,13.97949V17.915H39.25049V13.97949h.977V10.043a1.74053,1.74053,0,0,0-.32568-1.16406,1.233,1.233,0,0,0-.97706-.37207q-1.396,0-1.396,1.53613v3.93652h.977V17.915H31.15527V13.97949h1.02344V8.50684H31.15527V4.5708h6.37354V6.44287a5.07042,5.07042,0,0,1,4.1875-2.208,3.43541,3.43541,0,0,1,2.896,1.24805A5.48474,5.48474,0,0,1,45.57764,8.915v5.06445Z" transform="translate(-11.33594 0.75684)"/>
  <path d="M49.38086,17.01465q-1.24438-1.23486-1.24463-4.16406V8.50684H47.11279V4.5708A1.74109,1.74109,0,0,0,48.439,4.103a1.79535,1.79535,0,0,0,.4419-1.28418V1.73926H53.8125V4.5708h3.14014v3.936H53.8125v3.93652a1.69555,1.69555,0,0,0,.3374,1.16406,1.29631,1.29631,0,0,0,1.01172.37207,9.56839,9.56839,0,0,0,1.93067-.21679v3.76855a10.52561,10.52561,0,0,1-1.75635.49219,11.12534,11.12534,0,0,1-2.24463.22754A5.05653,5.05653,0,0,1,49.38086,17.01465Z" transform="translate(-11.33594 0.75684)"/>
  <path d="M59.60449,16.46289a6.90575,6.90575,0,0,1-1.86084-5.21973A6.90838,6.90838,0,0,1,59.60449,6.023,7.14725,7.14725,0,0,1,64.769,4.23486a7.07474,7.07474,0,0,1,5.187,1.812,6.97485,6.97485,0,0,1,1.8379,5.19628,6.90762,6.90762,0,0,1-1.86084,5.21973A7.14636,7.14636,0,0,1,64.769,18.251,7.14519,7.14519,0,0,1,59.60449,16.46289Zm6.17627-2.85547a1.69805,1.69805,0,0,0,.3374-1.16406V10.043a1.69805,1.69805,0,0,0-.3374-1.16406,1.5622,1.5622,0,0,0-2.02392,0,1.69555,1.69555,0,0,0-.33741,1.16406v2.40039a1.69555,1.69555,0,0,0,.33741,1.16406,1.5622,1.5622,0,0,0,2.02392,0Z" transform="translate(-11.33594 0.75684)"/>
  <path d="M88.44922,13.97949V17.915H81.09766V13.97949h.97851V10.043A1.74041,1.74041,0,0,0,81.75,8.87891a1.23057,1.23057,0,0,0-.97656-.37207q-1.39746,0-1.39649,1.53613v3.93652h.97657V17.915h-7.3501V13.97949h1.02344V8.50684H73.00342V4.5708h6.37353V6.44287a5.07042,5.07042,0,0,1,4.1875-2.208,3.437,3.437,0,0,1,2.89649,1.24805A5.48777,5.48777,0,0,1,87.42578,8.915v5.06445Z" transform="translate(-11.33594 0.75684)"/>
  <path d="M89.65918,17.915V13.97949h1.02344V8.50684H89.65918V4.5708h6.374v9.40869h1.02344V17.915ZM90.77539,3.251V-.75684h4.74609V3.251Z" transform="translate(-11.33594 0.75684)"/>
  <path d="M99.94043,16.46289a6.90407,6.90407,0,0,1-1.86133-5.21973A6.90671,6.90671,0,0,1,99.94043,6.023a7.146,7.146,0,0,1,5.16406-1.78809,7.07442,7.07442,0,0,1,5.1875,1.812,6.9729,6.9729,0,0,1,1.83789,5.19628,6.904,6.904,0,0,1-1.86133,5.21973,8.351,8.351,0,0,1-10.32812,0Zm6.17578-2.85547a1.698,1.698,0,0,0,.33789-1.16406V10.043a1.698,1.698,0,0,0-.33789-1.16406,1.56155,1.56155,0,0,0-2.02344,0,1.69808,1.69808,0,0,0-.33691,1.16406v2.40039a1.69808,1.69808,0,0,0,.33691,1.16406,1.56155,1.56155,0,0,0,2.02344,0Z" transform="translate(-11.33594 0.75684)"/>
  <path d="M133.7168,13.97949h.92968V17.915h-9.11816V13.97949h1.39551l-.37207-1.9209H123.3877l-.37208,1.9209h1.39551V17.915h-7.95508V13.97949h.93067L121.31738-.75684h8.46778Zm-9.81739-4.46435H126.04l-.9541-4.77588h-.23242Z" transform="translate(-11.33594 0.75684)"/>
  <path d="M136.27539,17.93945v-3.96h1.02344V3.1792h-1.02344v-3.936h6.374V13.97949h1.02344v3.96Z" transform="translate(-11.33594 0.75684)"/>
  <path d="M168.8418,13.97949V17.915h-7.35059V13.97949h.97754V10.043a1.74041,1.74041,0,0,0-.32617-1.16406,1.23057,1.23057,0,0,0-.97656-.37207q-1.396,0-1.39649,1.53613v3.93652h.97754V17.915h-7.30469V13.97949h.97754V10.043a1.74041,1.74041,0,0,0-.32617-1.16406,1.23057,1.23057,0,0,0-.97656-.37207q-1.396,0-1.39551,1.53613v3.93652h.97656V17.915h-7.35058V13.97949h1.02343V8.50684h-1.02343V4.5708h6.374V6.44287a5.06872,5.06872,0,0,1,4.18652-2.208,3.70583,3.70583,0,0,1,2.31446.68409,3.66725,3.66725,0,0,1,1.26855,1.93212,6.40777,6.40777,0,0,1,1.91895-1.91992,4.729,4.729,0,0,1,2.54687-.67187,3.43547,3.43547,0,0,1,2.89649,1.24756,5.48263,5.48263,0,0,1,.96484,3.43212v5.04053Z" transform="translate(-11.33594 0.75684)"/>
  <path d="M171.35449,16.46289a6.90407,6.90407,0,0,1-1.86133-5.21973A6.90671,6.90671,0,0,1,171.35449,6.023a7.146,7.146,0,0,1,5.16406-1.78809q3.2798,0,4.73438,1.76416a6.66086,6.66086,0,0,1,1.4541,4.37989v1.72851h-7.53711V12.251a1.591,1.591,0,0,0,.51172,1.30761,2.69034,2.69034,0,0,0,1.69824.4209,16.15129,16.15129,0,0,0,2.69824-.21679,13.49683,13.49683,0,0,0,2.2334-.55176v3.83984a9.5718,9.5718,0,0,1-2.38476.82813,14.7654,14.7654,0,0,1-3.40821.37207A7.144,7.144,0,0,1,171.35449,16.46289Zm6.51367-6.99609V9.1792a1.691,1.691,0,0,0-.33789-1.17627,1.32147,1.32147,0,0,0-1.01172-.35986,1.29629,1.29629,0,0,0-1.01171.37207,1.69638,1.69638,0,0,0-.33692,1.16406v.2876Z" transform="translate(-11.33594 0.75684)"/>
  <path d="M199.31641,13.97949V17.915h-7.35157V13.97949h.97754V10.043a1.74041,1.74041,0,0,0-.32617-1.16406,1.23057,1.23057,0,0,0-.97656-.37207q-1.396,0-1.39551,1.53613v3.93652h.97656V17.915h-7.35058V13.97949h1.02343V8.50684h-1.02343V4.5708h6.374V6.44287a5.06872,5.06872,0,0,1,4.18652-2.208,3.4358,3.4358,0,0,1,2.89649,1.24805A5.48168,5.48168,0,0,1,198.292,8.915v5.06445Z" transform="translate(-11.33594 0.75684)"/>
  <path d="M214.55176,13.97949V17.915h-6.1416V16.2832a4.90866,4.90866,0,0,1-1.42969,1.36817,4.02574,4.02574,0,0,1-2.24512.59961,3.80185,3.80185,0,0,1-2.74512-.96,3.5808,3.5808,0,0,1-1-2.71192q0-4.53661,7.4668-4.65625a1.30461,1.30461,0,0,0-.60449-1.11572,3.96643,3.96643,0,0,0-1.81445-.30029,12.05561,12.05561,0,0,0-2.24512.228,12.86033,12.86033,0,0,0-2.19824.61231v-4.416a23.65409,23.65409,0,0,1,2.6748-.5039,21.35133,21.35133,0,0,1,2.81543-.19239q3.46583,0,4.9541,1.29639a5.03349,5.03349,0,0,1,1.48926,4.00781v4.44043Zm-6.1416-1.68066a3.66751,3.66751,0,0,0-1.61621.28808.99528.99528,0,0,0-.57032.96.85619.85619,0,0,0,.93067.9121,1.03332,1.03332,0,0,0,.93066-.52832,2.84129,2.84129,0,0,0,.3252-1.4873Z" transform="translate(-11.33594 0.75684)"/>
</svg>